<?xml version="1.0" encoding="UTF-8"?>
<svg width="162px" height="36px" viewBox="0 0 162 36" version="1.1" xmlns="http://www.w3.org/2000/svg" xmlns:xlink="http://www.w3.org/1999/xlink">
    <!-- Generator: Sketch 60.1 (88133) - https://sketch.com -->
    <title>切片</title>
    <desc>Created with Sketch.</desc>
    <g id="页面-1" stroke="none" stroke-width="1" fill="none" fill-rule="evenodd">
        <g id="logo" transform="translate(31.000000, 3.000000)" fill-rule="nonzero">
            <path d="M35.9859682,4.78217054 C35.9859682,4.74612403 36,4.69806202 36,4.6620155 L36,0.96124031 C36,0.43255814 35.4387278,0 34.7511693,0 C34.0636109,0 33.5023386,0.420542636 33.5023386,0.96124031 L33.5023386,2.64341085 C33.3900842,2.63139535 33.2637979,2.61937984 33.1375117,2.61937984 L23.8624883,2.61937984 C22.2768943,2.61937984 21,3.7248062 21,5.07054264 L21,28.5368217 C21,29.8945736 22.2909261,31 23.8624883,31 L33.1375117,31 C34.7090739,31 36,29.9065891 36,28.5368217 L36,5.07054264 C35.9859682,4.98643411 35.9859682,4.87829457 35.9859682,4.78217054 M34.2740879,16.6414729 C34.2740879,17.9992248 32.9831618,19.0926357 31.4115996,19.0926357 L25.5743686,19.0926357 C23.9887746,19.0926357 22.7118803,17.9872093 22.7118803,16.6414729 L22.7118803,8.21860465 C22.7118803,6.86085271 24.0028064,5.76744186 25.5743686,5.76744186 L31.4115996,5.76744186 C32.9971936,5.76744186 34.2740879,6.86085271 34.2740879,8.21860465 L34.2740879,16.6414729 Z" id="形状" fill="#DDE4D4"></path>
            <path d="M20,13.4999227 C23.0013831,14.0972494 25.5186722,11 25.5186722,11 C27.9944675,14.0972494 30,11.5973267 30,11.5973267 C30,11.5973267 28.1466113,14.0861877 22.2544952,13.9976949 L20,13.4999227 Z" id="路径" fill="#9F4C3F"></path>
            <path d="M31.045283,8 C31.045283,8 26.6143396,16.0839198 19,13.9392064 C19,13.9392064 32.909434,17.7336993 38,10.9696032 L31.045283,8 Z" id="路径" fill="#DD3839"></path>
            <polygon id="路径" fill="#2CB34A" points="0 6 4.46522411 6 9.01391036 14.1893805 13.5486862 6 18 6 18 20 14.3693972 20 14.3554869 11.1292035 10.3353941 18.6 7.69242658 18.6 3.65842349 11.1292035 3.65842349 20 0 20"></polygon>
            <path d="M50.3715789,7.28849558 C51.4526316,8.14336283 52,9.35752212 52,10.9185841 C52,12.5663717 51.4526316,13.8548673 50.3715789,14.759292 C49.2905263,15.6761062 47.7578947,16.1221239 45.7873684,16.1221239 L43.0368421,16.1221239 L43.0368421,20 L39,20 L39,6 L45.7873684,6 C47.7442105,6 49.2768421,6.43362832 50.3715789,7.28849558 M47.4842105,12.6530973 C47.9357895,12.2814159 48.1547368,11.7362832 48.1547368,11.0300885 C48.1547368,10.3486726 47.9357895,9.82831858 47.4842105,9.46902655 C47.0326316,9.09734513 46.4031579,8.92389381 45.5821053,8.92389381 L43.0231579,8.92389381 L43.0231579,13.2106195 L45.5821053,13.2106195 C46.4031579,13.2106195 47.0463158,13.0247788 47.4842105,12.6530973" id="形状" fill="#2CB34A"></path>
            <polygon id="路径" fill="#2CB34A" points="54 6 66.7706725 6 66.7706725 8.91150442 58.2282249 8.91150442 58.2282249 11.5256637 65.9393605 11.5256637 65.9393605 14.4247788 58.2282249 14.4495575 58.2282249 17.0761062 67 17.0761062 67 20 54 20"></polygon>
            <path d="M77.6205128,9.29059829 C76.6441026,9.01538462 75.8112821,8.88376068 75.1507692,8.88376068 C74.6194872,8.88376068 74.2174359,8.95555556 73.9158974,9.12307692 C73.614359,9.27863248 73.4707692,9.51794872 73.4707692,9.82905983 C73.4707692,10.1282051 73.6,10.3675214 73.8584615,10.5709402 C74.1169231,10.774359 74.4471795,10.9299145 74.8348718,11.0495726 C75.2225641,11.1692308 75.7969231,11.3247863 76.5435897,11.5282051 C77.6635897,11.791453 78.5969231,12.0666667 79.3292308,12.3418803 C80.0615385,12.617094 80.6933333,13.0239316 81.2102564,13.5863248 C81.7271795,14.1487179 82,14.8786325 82,15.7760684 C82,16.6735043 81.7128205,17.4393162 81.1384615,18.0854701 C80.5641026,18.7196581 79.7887179,19.1982906 78.7979487,19.5213675 C77.8071795,19.8444444 76.7015385,20 75.4810256,20 C74.145641,20 72.7958974,19.808547 71.4605128,19.4136752 C70.1251282,19.0188034 68.9764103,18.4803419 68,17.7982906 L69.6369231,15.0461538 C70.4553846,15.6444444 71.4174359,16.1470085 72.5374359,16.5299145 C73.6574359,16.9128205 74.6482051,17.1042735 75.5097436,17.1042735 C76.1415385,17.1042735 76.6441026,17.008547 77.0030769,16.817094 C77.3620513,16.625641 77.5487179,16.3384615 77.5487179,15.9675214 C77.5487179,15.6564103 77.4194872,15.4051282 77.1466667,15.2017094 C76.8738462,14.9982906 76.5292308,14.8307692 76.1271795,14.7111111 C75.7251282,14.591453 75.1507692,14.4478632 74.4041026,14.2803419 C73.2984615,14.0290598 72.3794872,13.765812 71.6471795,13.5025641 C70.9292308,13.2393162 70.2974359,12.8444444 69.7805128,12.3059829 C69.2635897,11.7794872 69.0051282,11.0615385 69.0051282,10.1760684 C69.0051282,9.33846154 69.2779487,8.60854701 69.8092308,7.97435897 C70.3405128,7.34017094 71.1015385,6.86153846 72.0779487,6.51452991 C73.054359,6.16752137 74.1887179,6 75.4953846,6 C76.6728205,6 77.8215385,6.14358974 78.9702564,6.41880342 C80.1189744,6.69401709 81.1097436,7.06495726 81.985641,7.53162393 L80.3917949,10.3435897 C79.5158974,9.91282051 78.5969231,9.56581197 77.6205128,9.29059829" id="路径" fill="#2CB34A"></path>
            <path d="M95.5071315,20 L94.4088748,17.5221239 L87.4484945,17.5221239 L86.3217116,20 L82,20 L88.9175911,6 L93.2393027,6 L100,20 L95.5071315,20 Z M88.703645,14.7221239 L93.1679873,14.7221239 L90.9572108,9.72920354 L88.703645,14.7221239 Z" id="形状" fill="#2CB34A"></path>
        </g>
    </g>
</svg>