<svg id="Layer_10" data-name="Layer 10" xmlns="http://www.w3.org/2000/svg" viewBox="0 0 2218.38512 420.69048"><defs><style>.cls-1{fill:#0baf0b;}.cls-2{fill:#081110;opacity:0.5;}.cls-3{fill:#0589d1;}.cls-4{fill:#d3047d;}.cls-5{fill:#ff7300;}.cls-6{fill:#444;stroke:#444;stroke-miterlimit:10;stroke-width:5px;}</style></defs><path class="cls-1" d="M277.72644,289.11749l-.40156-.42833c-5.16729-5.16793-50.5594-50.562-53.13062-52.97956-3.12256-2.9358-7.40006-6.95771-13.42272-4.27814-6.01374,2.67575-5.8869,8.66209-5.804,12.57691l.30913,19.1267c-3.93012.61826-8.8533,1.44559-14.06457,2.68913a61.44227,61.44227,0,0,0-20.636,9.62517,86.33,86.33,0,0,0-35.72041,56.104,81.09225,81.09225,0,0,0,14.31315,61.67989c18.0221,24.809,41.03366,32.06755,57.16464,33.78786a84.10558,84.10558,0,0,0,8.91512.47166c20.7361,0,41.2848-7.57279,56.33732-21.04522C305.30806,376.26479,308.06221,323.63133,277.72644,289.11749Z" transform="translate(-4.13723 -6.80233)"/><path class="cls-2" d="M205.276,263.13507c-3.92948.61826-8.85266,1.44559-14.06393,2.68913a61.44227,61.44227,0,0,0-20.636,9.62517,86.33,86.33,0,0,0-35.72041,56.104,81.09225,81.09225,0,0,0,14.31315,61.67989c18.0221,24.809,41.03366,32.06755,57.16464,33.78786.90381.09624,1.81018.14914,2.7159.21607Z" transform="translate(-4.13723 -6.80233)"/><path class="cls-3" d="M425.70144,207.56389a82.67707,82.67707,0,0,0-33.71264-57.9448c-19.89985-14.42151-40.35932-19.96805-60.81113-16.48537-31.47606,5.36042-50.96415,30.35107-56.18753,37.88307a61.06533,61.06533,0,0,0-9.54232,20.51938c-1.22314,5.152-2.03772,10.01972-2.64642,13.91287l-18.88449-.283c-3.94988-.07967-9.91837-.19886-12.58647,5.81424-2.67192,6.022,1.50806,10.4576,4.27431,13.39277,2.40359,2.55082,47.51908,47.56305,52.65577,52.68764l.42833.40091a83.89819,83.89819,0,0,0,55.431,20.86867,81.61136,81.61136,0,0,0,61.13364-27.1004A82.46642,82.46642,0,0,0,425.70144,207.56389Z" transform="translate(-4.13723 -6.80233)"/><path class="cls-2" d="M331.17767,133.13372c-31.47606,5.36042-50.96415,30.35107-56.18753,37.88307a61.06533,61.06533,0,0,0-9.54232,20.51938c-1.22314,5.152-2.03772,10.01908-2.64642,13.91287l163.02815,3.69939c-.04653-.52839-.07138-1.05615-.12811-1.58454a82.67707,82.67707,0,0,0-33.71264-57.9448C372.089,135.19758,351.62948,129.65041,331.17767,133.13372Z" transform="translate(-4.13723 -6.80233)"/><path class="cls-4" d="M197.236,208.6551c-2.43864-2.584-48.23486-48.2202-53.44868-53.41554l-.429-.40028c-34.786-30.46962-87.74963-27.60584-118.06564,6.38279a83.37312,83.37312,0,0,0,13.512,123.17111,81.2121,81.2121,0,0,0,47.84861,15.514,84.51481,84.51481,0,0,0,14.24749-1.21741,86.87752,86.87752,0,0,0,56.39915-36.04612,61.80114,61.80114,0,0,0,9.64811-20.77816c1.24864-5.27246,2.07533-10.253,2.69169-14.22009l19.27456.2779c3.9722.07649,9.97446.19376,12.64129-5.82763C204.22686,216.06535,200.18646,211.78211,197.236,208.6551Z" transform="translate(-4.13723 -6.80233)"/><path class="cls-2" d="M4.47185,223.89756c.05227.60806.08286,1.21613.14915,1.8242a83.74533,83.74533,0,0,0,34.18367,58.67142,81.2121,81.2121,0,0,0,47.84861,15.514,84.51481,84.51481,0,0,0,14.24749-1.21741,86.87752,86.87752,0,0,0,56.39915-36.04612,61.80114,61.80114,0,0,0,9.64811-20.77816c1.24864-5.27246,2.07533-10.253,2.69169-14.21945Z" transform="translate(-4.13723 -6.80233)"/><path class="cls-5" d="M283.31568,41.01417A82.681,82.681,0,0,0,225.38936,7.26838c-.17146-.01848-.34291-.02422-.51437-.04206a82.45694,82.45694,0,0,0-63.16372,20.45373c-33.55458,29.931-36.38011,82.21966-6.298,116.56141l.40092.429c5.1214,5.13925,50.10813,50.28023,52.65768,52.68509,2.27228,2.14417,5.44392,5.13733,9.55888,5.1367a9.3897,9.3897,0,0,0,3.832-.85474c6.01438-2.66427,5.89838-8.6334,5.82189-12.53739l-.27408-18.93038c3.89443-.60679,8.76279-1.41818,13.91542-2.63878a61.04053,61.04053,0,0,0,20.52449-9.5302c19.28094-13.35452,33.02426-34.39082,36.76381-56.271C302.19379,80.782,296.90348,59.78712,283.31568,41.01417Z" transform="translate(-4.13723 -6.80233)"/><path class="cls-2" d="M283.31568,41.01417A82.681,82.681,0,0,0,225.38936,7.26838c-.17146-.01848-.34291-.02422-.51437-.04206l2.53552,162.94338c3.89443-.60679,8.76279-1.41818,13.91542-2.63878a61.04053,61.04053,0,0,0,20.52449-9.5302c19.28094-13.35452,33.02426-34.39082,36.76381-56.271C302.19379,80.782,296.90348,59.78712,283.31568,41.01417Z" transform="translate(-4.13723 -6.80233)"/><path class="cls-6" d="M819.45508,83.70562a14.35141,14.35141,0,0,0-14.35144,14.35131l-.04248,161.0459c0,44.79981-23.19922,65.999-61.59863,65.999-38.79981,0-61.19922-21.19922-61.19922-65.999l.01172-94.63452a14.40149,14.40149,0,1,0-28.803,0l-.00855,94.63452c0,44.79981-22.39941,65.999-60.79882,65.999-38.79883,0-61.999-21.19922-61.999-65.999l-.49646-161.0459a14.35138,14.35138,0,0,0-28.70276,0V259.50322c0,59.59864,34.39942,90.79883,90.79883,90.79883,35.59863,0,62.39844-12.7998,75.59863-38.39941,13.19922,25.59961,40.39942,38.39941,75.59864,38.39941,56.39941,0,90.39843-31.20019,90.39843-90.79883l-.05444-161.44629A14.35132,14.35132,0,0,0,819.45508,83.70562Z" transform="translate(-4.13723 -6.80233)"/><path class="cls-6" d="M981.861,150.23687q-22.07373,0-45.3125,10.9375Q881.86,193.795,881.861,249.45562q0,25.00341,12.30469,49.60937,33.98438,50.97657,84.76563,50.97656h5.66406q37.106,0,69.33594-30.66406v.78125L1053.15,338.3228v.78125q4.49121,10.94093,13.86718,10.9375h.78125q13.86622-2.34375,13.86719-13.08593V252.3853a112.1377,112.1377,0,0,0-10.15625-46.67968Q1038.50061,150.23784,981.861,150.23687ZM1053.15,252.3853q0,15.62843-8.59375,32.8125-23.63379,36.32813-59.96094,36.32813h-5.66406q-10.94092,0-24.80469-5.07813-43.75342-22.06933-43.75-65.625v-2.14843q0-9.76466,4.29687-24.02344,22.26563-45.895,66.40625-45.89844h.78125a72.6426,72.6426,0,0,1,29.88282,6.44531q41.40526,22.26563,41.40625,64.25782Z" transform="translate(-4.13723 -6.80233)"/><path class="cls-6" d="M1194.46985,176.02568c29.0636,0,43.459,14.27417,44.39258,15.2334l.02881.02979.02209.023.04749.04516.00256-.00219a12.31,12.31,0,0,0,17.74719-17.05054l.01-.00952-2.69458-2.832c-.76245-.85621-19.135-20.96582-58.81006-20.96582-31.54687,0-65.50036,16.64843-65.50036,53.20141,0,34.55127,31.28943,46.94141,58.89551,57.8728,22.59167,8.946,42.10254,16.67188,42.10254,34.18018,0,19.63086-18.20325,28.41772-36.24378,28.41772a79.54773,79.54773,0,0,1-44.25867-13.67651,13.00369,13.00369,0,1,0-14.80871,21.377l-.01319.01954c1.87549,1.303,3.96656,2.65625,6.29322,4.01489a103.60017,103.60017,0,0,0,52.41528,13.79394c18.48718,0,35.19824-5.37378,47.0542-15.13257a49.50621,49.50621,0,0,0,18.44531-38.814c0-34.989-31.323-47.21167-58.95825-57.99487-22.5581-8.80127-42.03979-16.40259-42.03979-34.05811C1158.59925,183.2957,1177.12915,176.02568,1194.46985,176.02568Z" transform="translate(-4.13723 -6.80233)"/><circle class="cls-6" cx="1466.02574" cy="94.33382" r="17.17441"/><path class="cls-6" d="M1466.02574,143.49367h.00024a13.24976,13.24976,0,0,1,13.24976,13.24976V330.65627A13.24976,13.24976,0,0,1,1466.026,343.906h-.00024a13.25,13.25,0,0,1-13.25-13.25V156.74367A13.25,13.25,0,0,1,1466.02574,143.49367Z"/><path class="cls-6" d="M1395.663,83.96178a13.28882,13.28882,0,0,0-13.25,13.25V337.45836a13.25,13.25,0,1,0,26.5,0V97.21178A13.28883,13.28883,0,0,0,1395.663,83.96178Z" transform="translate(-4.13723 -6.80233)"/><circle class="cls-6" cx="1317.02574" cy="94.44387" r="17.17432"/><path class="cls-6" d="M1321.163,150.296a13.289,13.289,0,0,0-13.25,13.25V337.45836a13.25,13.25,0,1,0,26.5,0V163.546A13.28883,13.28883,0,0,0,1321.163,150.296Z" transform="translate(-4.13723 -6.80233)"/><path class="cls-6" d="M1631.413,150.327q-22.07373,0-45.3125,10.9375-54.68849,32.6206-54.6875,88.28125,0,25.00342,12.30468,49.60938,33.98438,50.97656,84.76563,50.97656h5.66406q37.106,0,69.33594-30.66406v.78125l-.78125,18.16406v.78125q4.49121,10.94092,13.86719,10.9375h.78125q13.86621-2.34375,13.86718-13.08594V252.47539a112.13777,112.13777,0,0,0-10.15625-46.67969Q1688.05261,150.32794,1631.413,150.327ZM1702.702,252.47539q0,15.62842-8.59375,32.8125-23.63379,36.32813-59.96094,36.32813h-5.66406q-10.94092,0-24.80469-5.07813-43.75341-22.06934-43.75-65.625v-2.14844q0-9.76464,4.29688-24.02343,22.26563-45.895,66.40625-45.89844h.78125a72.64255,72.64255,0,0,1,29.88281,6.44531q41.40527,22.26563,41.40625,64.25781Z" transform="translate(-4.13723 -6.80233)"/><path class="cls-6" d="M1807.21765,335.75763V248.5875c0-37.621,29.87367-69.043,67.49075-69.58738a68.57587,68.57587,0,0,1,69.50925,68.49269v88.92107a14.07894,14.07894,0,0,0,14.07894,14.07893h0a13.921,13.921,0,0,0,13.921-13.921v-87.793c0-53.15817-42.44628-97.29591-95.60222-97.78189a96.60807,96.60807,0,0,0-97.39778,96.49589V337.228a13.26479,13.26479,0,0,0,13.26479,13.26479h0A14.73517,14.73517,0,0,0,1807.21765,335.75763Z" transform="translate(-4.13723 -6.80233)"/><path class="cls-6" d="M2209.86609,205.66558q-33.00879-55.46778-89.64844-55.46875-22.07373,0-45.3125,10.9375-54.68847,32.62061-54.6875,88.28125,0,25.00341,12.30469,49.60937,33.98438,50.97657,84.76563,50.97656h5.66406q37.106,0,69.33594-30.66406v.78125l-.78125,18.16406v.78125q4.49121,10.94092,13.86718,10.9375h.78125q13.86623-2.34375,13.86719-13.08593V252.34526A112.13773,112.13773,0,0,0,2209.86609,205.66558Zm-18.35937,46.67968q0,15.62842-8.59375,32.8125-23.63379,36.32813-59.96094,36.32813H2117.288q-10.94092,0-24.80469-5.07813-43.75342-22.06934-43.75-65.625v-2.14843q0-9.76466,4.29687-24.02344,22.26563-45.895,66.40625-45.89844h.78125a72.6426,72.6426,0,0,1,29.88282,6.44531q41.40526,22.26563,41.40625,64.25782Z" transform="translate(-4.13723 -6.80233)"/></svg>